<svg data-name="Layer 1" viewBox="0 0 64 64" xmlns="http://www.w3.org/2000/svg"><path d="M40 61V33h20v28M16 55v-6h18v6" fill="#f23350" class="fill-8f6c56"></path><path d="M20 9h10v40H20zM14 61v-6h22v6" fill="#001aff" class="fill-838bc5"></path><path d="M31 5v4H19V5" fill="#f23350" class="fill-8f6c56"></path><path d="M51 5H5a2 2 0 0 1-2-2 2 2 0 0 1 2-2h41Z" fill="#001aff" class="fill-838bc5"></path><path d="M6 4h2v7H6zM49 5h2v7h-2z" fill="#001aff" class="fill-838bc5"></path><path d="M2 61h60v2H2zM40 12h22v4H40z" fill="#f23350" class="fill-8f6c56"></path><path d="M62 11H40a1 1 0 0 0-1 1v4a1 1 0 0 0 1 1h22a1 1 0 0 0 1-1v-4a1 1 0 0 0-1-1Zm-8 2v2h-5v-2Zm-13 0h6v2h-6Zm20 2h-5v-2h5Z" fill="#e9ed0c" class="fill-ba9bc9"></path><path d="M60 32H40a1 1 0 0 0-1 1v28h2v-3h4v3h2v-3h5v3h2v-3h5v3h2V33a1 1 0 0 0-1-1Zm-1 4h-5v-2h5Zm-9 4v-2h5v2Zm0 8v-2h5v2Zm-5-4v-2h5v2Zm2-8v-2h5v2Zm1 2v2h-7v-2Zm-5 4v2h-2v-2Zm5 4v2h-7v-2Zm-4 4v2h-3v-2Zm2 0h5v2h-5Zm9 4v2h-5v-2Zm-2-2v-2h6v2Zm4-4v-2h2v2Zm-5-4v-2h7v2Zm5-4v-2h2v2Zm-12-6v2h-4v-2Zm-4 20h7v2h-7Zm16 2v-2h2v2Z" fill="#001aff" class="fill-838bc5"></path><circle cx="7" cy="15" r="5" fill="#f23350" class="fill-8f6c56"></circle></svg>